<?xml version="1.0" encoding="UTF-8"?>
<svg version="1.1" xmlns="http://www.w3.org/2000/svg" width="1536" height="1024">
<path d="M0 0 C506.88 0 1013.76 0 1536 0 C1536 337.92 1536 675.84 1536 1024 C1029.12 1024 522.24 1024 0 1024 C0 686.08 0 348.16 0 0 Z " fill="#FCFDFD" transform="translate(0,0)"/>
<path d="M0 0 C10.8811449 9.25133784 20.1505437 19.07638726 27.03515625 31.62890625 C27.57027832 32.59014404 27.57027832 32.59014404 28.11621094 33.57080078 C33.11571137 42.66989158 36.62977505 51.49830606 39.03515625 61.62890625 C39.24785156 62.44875 39.46054687 63.26859375 39.6796875 64.11328125 C46.66747777 92.46661732 39.67608612 121.9657316 25.03515625 146.62890625 C24.28673013 147.93095378 23.54061392 149.23433194 22.796875 150.5390625 C21.92482422 152.06853516 21.92482422 152.06853516 21.03515625 153.62890625 C22.44367572 154.95014567 23.86231366 156.26060394 25.28515625 157.56640625 C26.46851563 158.66275391 26.46851563 158.66275391 27.67578125 159.78125 C30.05049873 161.64092114 31.07961912 162.3754204 34.03515625 162.62890625 C35.69224609 162.26732422 35.69224609 162.26732422 37.3828125 161.8984375 C41.42725915 161.59997031 42.74721447 162.29249836 45.81396484 164.84155273 C46.63501709 165.57160522 46.63501709 165.57160522 47.47265625 166.31640625 C48.70142903 167.34447837 49.93196599 168.37044481 51.1640625 169.39453125 C51.79844238 169.93013672 52.43282227 170.46574219 53.08642578 171.01757812 C56.27268924 173.65217332 59.58938383 176.10509917 62.91015625 178.56640625 C64.25276874 179.56879002 65.59521538 180.57139597 66.9375 181.57421875 C67.60894043 182.07469727 68.28038086 182.57517578 68.97216797 183.09082031 C88.45460511 197.61618765 88.45460511 197.61618765 96.03515625 203.62890625 C96.62941406 204.0878125 97.22367188 204.54671875 97.8359375 205.01953125 C101.52814703 207.94510062 103.67927718 210.19568658 104.37109375 214.92578125 C104.49597439 222.76828572 102.6169085 227.6693366 97.47265625 233.56640625 C92.24378827 237.990833 85.5410587 237.14968936 79.03515625 236.62890625 C71.69835334 234.79799852 65.5621459 228.59240585 59.74072266 223.97558594 C57.02659645 221.83256846 54.28002558 219.73229576 51.53515625 217.62890625 C50.45165337 216.79579337 49.3683203 215.96245961 48.28515625 215.12890625 C47.74890625 214.71640625 47.21265625 214.30390625 46.66015625 213.87890625 C44.22265625 212.00390625 44.22265625 212.00390625 41.78515625 210.12890625 C41.24810059 209.71584229 40.71104492 209.30277832 40.15771484 208.87719727 C39.08230134 208.04984408 38.00710338 207.22221064 36.93212891 206.39428711 C34.104392 204.21702415 31.2722718 202.04579661 28.43359375 199.8828125 C27.54897461 199.20702148 27.54897461 199.20702148 26.64648438 198.51757812 C25.51895651 197.65639543 24.39012254 196.79691914 23.25976562 195.93945312 C21.83870334 194.85254708 20.43596483 193.74179353 19.03515625 192.62890625 C18.07996094 191.89027344 18.07996094 191.89027344 17.10546875 191.13671875 C16.03515625 189.62890625 16.03515625 189.62890625 16.34765625 187.4296875 C16.68796875 186.19798828 16.68796875 186.19798828 17.03515625 184.94140625 C17.54557345 182.2878134 17.54557345 182.2878134 17.03515625 179.62890625 C13.90255349 176.05595541 10.43659578 173.43643075 6.03515625 171.62890625 C2.25723716 172.40584095 -0.35337177 174.55864862 -3.36352539 176.90356445 C-28.42619514 196.30276958 -58.86850447 200.41430258 -89.66796875 196.953125 C-111.85468998 193.82132591 -132.16705751 182.22957216 -147.96484375 166.62890625 C-148.71894531 165.93539062 -149.47304688 165.241875 -150.25 164.52734375 C-170.79304904 145.1471088 -180.62863585 117.02922449 -182.14453125 89.34765625 C-182.75655318 61.87467166 -174.04643738 33.8651186 -154.96484375 13.62890625 C-154.50271484 13.12198242 -154.04058594 12.61505859 -153.56445312 12.09277344 C-137.13615189 -5.853477 -117.42023559 -16.54486349 -93.96484375 -22.37109375 C-92.97355469 -22.61859375 -91.98226562 -22.86609375 -90.9609375 -23.12109375 C-59.69944708 -29.52458539 -24.76382058 -19.58624048 0 0 Z " fill="#FBFCFC" transform="translate(803.96484375,387.37109375)"/>
<path d="M0 0 C2.97 0 5.94 0 9 0 C9 1.65 9 3.3 9 5 C9.66 4.67 10.32 4.34 11 4 C11.65213292 1.97536745 11.65213292 1.97536745 12 0 C13.32 0 14.64 0 16 0 C16 1.32 16 2.64 16 4 C16.66 4 17.32 4 18 4 C18 2.68 18 1.36 18 0 C19.65 0 21.3 0 23 0 C23 1.65 23 3.3 23 5 C23.99 5 24.98 5 26 5 C26 3.35 26 1.7 26 0 C28.97 0 31.94 0 35 0 C35 2.97 35 5.94 35 9 C32.60429729 9.1687539 30.20846637 9.33506836 27.8125 9.5 C27.13896484 9.54769531 26.46542969 9.59539062 25.77148438 9.64453125 C22.17363248 9.89023821 18.60627694 10.05601984 15 10 C15 8.35 15 6.7 15 5 C14.34 5.33 13.68 5.66 13 6 C12.34786708 8.02463255 12.34786708 8.02463255 12 10 C10.68 10 9.36 10 8 10 C8 10.99 8 11.98 8 13 C14.6 13 21.2 13 28 13 C28 12.01 28 11.02 28 10 C29.32 10 30.64 10 32 10 C32 10.99 32 11.98 32 13 C32.57105469 12.96519531 33.14210938 12.93039062 33.73046875 12.89453125 C43.28859523 12.57542051 53.45126359 13.71776264 61 20 C63.00597935 22.79972773 64.59857846 25.76107658 66.1875 28.8125 C66.82461914 29.98522461 66.82461914 29.98522461 67.47460938 31.18164062 C69.90113705 35.69883133 72.05559171 40.25615045 74 45 C74.99 42.69 75.98 40.38 77 38 C79.14576637 37.97314062 81.29162645 37.95366912 83.4375 37.9375 C84.63246094 37.92589844 85.82742188 37.91429687 87.05859375 37.90234375 C90 38 90 38 91 39 C91.07205511 40.68608966 91.08386068 42.37500659 91.0625 44.0625 C91.05347656 44.98160156 91.04445313 45.90070313 91.03515625 46.84765625 C91.01775391 47.91306641 91.01775391 47.91306641 91 49 C86.44508386 51.20399168 81.97093824 51.58846263 77 52 C77.50789062 52.4125 78.01578125 52.825 78.5390625 53.25 C79.22742188 53.8275 79.91578125 54.405 80.625 55 C81.29789063 55.556875 81.97078125 56.11375 82.6640625 56.6875 C83.43492187 57.450625 84.20578125 58.21375 85 59 C85.52698486 59.46132324 86.05396973 59.92264648 86.59692383 60.39794922 C92.09192153 66.12641315 91.69651756 72.70649355 91.57617188 80.171875 C91.53032744 81.82292725 91.48410168 83.47396895 91.4375 85.125 C91.41593096 86.75257075 91.39703116 88.38017917 91.38085938 90.0078125 C91.25862614 99.36768942 90.79081718 108.67158511 90 118 C88.88625 118.350625 87.7725 118.70125 86.625 119.0625 C84.66392194 119.81040892 84.66392194 119.81040892 83 121 C81.60961255 124.49026242 81.60961255 124.49026242 81 128 C78.43011319 130.56988681 77.41089947 130.25706775 73.84375 130.265625 C72.31041016 130.26949219 72.31041016 130.26949219 70.74609375 130.2734375 C69.67488281 130.26570312 68.60367188 130.25796875 67.5 130.25 C66.42878906 130.25773438 65.35757813 130.26546875 64.25390625 130.2734375 C63.23167969 130.27085937 62.20945312 130.26828125 61.15625 130.265625 C60.21587891 130.26336914 59.27550781 130.26111328 58.30664062 130.25878906 C56 130 56 130 54 128 C54 125.36 54 122.72 54 120 C30.24 120 6.48 120 -18 120 C-18 121.98 -18 123.96 -18 126 C-19.17382812 128.34179688 -19.17382812 128.34179688 -21 130 C-23.40429688 130.51757812 -23.40429688 130.51757812 -26.21875 130.53125 C-27.23324219 130.53640625 -28.24773438 130.5415625 -29.29296875 130.546875 C-30.35128906 130.53140625 -31.40960937 130.5159375 -32.5 130.5 C-34.08748047 130.52320313 -34.08748047 130.52320313 -35.70703125 130.546875 C-37.22876953 130.53914063 -37.22876953 130.53914063 -38.78125 130.53125 C-39.71001953 130.52673828 -40.63878906 130.52222656 -41.59570312 130.51757812 C-44 130 -44 130 -45.81445312 128.13867188 C-47.23360755 125.57858275 -47.24031857 123.88382285 -47 121 C-48.175625 120.814375 -48.175625 120.814375 -49.375 120.625 C-52 120 -52 120 -54 118 C-56.51391613 108.3563384 -56.4343763 98.12270163 -56.48046875 88.22338867 C-56.50011134 85.67304346 -56.56247486 83.12578104 -56.625 80.57617188 C-56.81777724 65.78002188 -56.81777724 65.78002188 -51.59472656 60.37817383 C-50.80533691 59.69597778 -50.80533691 59.69597778 -50 59 C-49.22914063 58.236875 -48.45828125 57.47375 -47.6640625 56.6875 C-46.99117187 56.130625 -46.31828125 55.57375 -45.625 55 C-44.93664062 54.4225 -44.24828125 53.845 -43.5390625 53.25 C-43.03117188 52.8375 -42.52328125 52.425 -42 52 C-42.84304688 51.95101562 -43.68609375 51.90203125 -44.5546875 51.8515625 C-45.65039062 51.77679688 -46.74609375 51.70203125 -47.875 51.625 C-48.96554687 51.55539062 -50.05609375 51.48578125 -51.1796875 51.4140625 C-54 51 -54 51 -56 49 C-56.23046875 46.65234375 -56.23046875 46.65234375 -56.1875 43.9375 C-56.18105469 43.03902344 -56.17460938 42.14054687 -56.16796875 41.21484375 C-56 39 -56 39 -55 38 C-53.04577134 37.84832852 -51.08490271 37.77820004 -49.125 37.75 C-47.52011719 37.71132813 -47.52011719 37.71132813 -45.8828125 37.671875 C-43 38 -43 38 -41.12890625 39.28515625 C-39.30552604 42.05492758 -39.81818428 44.78792228 -40 48 C-39.34 48 -38.68 48 -38 48 C-37.76796875 46.71609375 -37.5359375 45.4321875 -37.296875 44.109375 C-36.08773356 38.69157283 -33.859779 34.12003404 -31.25 29.25 C-30.83234375 28.42628906 -30.4146875 27.60257812 -29.984375 26.75390625 C-26.91039338 20.93395934 -23.8998887 16.33309539 -17.39453125 14.109375 C-16.54246094 13.99078125 -15.69039062 13.8721875 -14.8125 13.75 C-13.8740625 13.61335938 -12.935625 13.47671875 -11.96875 13.3359375 C-7.3176312 12.80962669 -2.66838879 12.34313109 2 12 C2.33 11.01 2.66 10.02 3 9 C2.01 9 1.02 9 0 9 C0 6.03 0 3.06 0 0 Z " fill="#F8B920" transform="translate(718,402)"/>
<path d="M0 0 C10.8811449 9.25133784 20.1505437 19.07638726 27.03515625 31.62890625 C27.57027832 32.59014404 27.57027832 32.59014404 28.11621094 33.57080078 C33.11571137 42.66989158 36.62977505 51.49830606 39.03515625 61.62890625 C39.24785156 62.44875 39.46054687 63.26859375 39.6796875 64.11328125 C46.66747777 92.46661732 39.67608612 121.9657316 25.03515625 146.62890625 C24.28673013 147.93095378 23.54061392 149.23433194 22.796875 150.5390625 C21.92482422 152.06853516 21.92482422 152.06853516 21.03515625 153.62890625 C22.44367572 154.95014567 23.86231366 156.26060394 25.28515625 157.56640625 C26.46851563 158.66275391 26.46851563 158.66275391 27.67578125 159.78125 C30.05049873 161.64092114 31.07961912 162.3754204 34.03515625 162.62890625 C35.69224609 162.26732422 35.69224609 162.26732422 37.3828125 161.8984375 C41.42725915 161.59997031 42.74721447 162.29249836 45.81396484 164.84155273 C46.63501709 165.57160522 46.63501709 165.57160522 47.47265625 166.31640625 C48.70142903 167.34447837 49.93196599 168.37044481 51.1640625 169.39453125 C51.79844238 169.93013672 52.43282227 170.46574219 53.08642578 171.01757812 C56.27268924 173.65217332 59.58938383 176.10509917 62.91015625 178.56640625 C64.25276874 179.56879002 65.59521538 180.57139597 66.9375 181.57421875 C67.60894043 182.07469727 68.28038086 182.57517578 68.97216797 183.09082031 C88.45460511 197.61618765 88.45460511 197.61618765 96.03515625 203.62890625 C96.62941406 204.0878125 97.22367188 204.54671875 97.8359375 205.01953125 C101.52814703 207.94510062 103.67927718 210.19568658 104.37109375 214.92578125 C104.49597439 222.76828572 102.6169085 227.6693366 97.47265625 233.56640625 C92.24378827 237.990833 85.5410587 237.14968936 79.03515625 236.62890625 C71.69835334 234.79799852 65.5621459 228.59240585 59.74072266 223.97558594 C57.02659645 221.83256846 54.28002558 219.73229576 51.53515625 217.62890625 C50.45165337 216.79579337 49.3683203 215.96245961 48.28515625 215.12890625 C47.74890625 214.71640625 47.21265625 214.30390625 46.66015625 213.87890625 C44.22265625 212.00390625 44.22265625 212.00390625 41.78515625 210.12890625 C41.24810059 209.71584229 40.71104492 209.30277832 40.15771484 208.87719727 C39.08230134 208.04984408 38.00710338 207.22221064 36.93212891 206.39428711 C34.104392 204.21702415 31.2722718 202.04579661 28.43359375 199.8828125 C27.54897461 199.20702148 27.54897461 199.20702148 26.64648438 198.51757812 C25.51895651 197.65639543 24.39012254 196.79691914 23.25976562 195.93945312 C21.83870334 194.85254708 20.43596483 193.74179353 19.03515625 192.62890625 C18.07996094 191.89027344 18.07996094 191.89027344 17.10546875 191.13671875 C16.03515625 189.62890625 16.03515625 189.62890625 16.34765625 187.4296875 C16.68796875 186.19798828 16.68796875 186.19798828 17.03515625 184.94140625 C17.54557345 182.2878134 17.54557345 182.2878134 17.03515625 179.62890625 C13.90255349 176.05595541 10.43659578 173.43643075 6.03515625 171.62890625 C2.25723716 172.40584095 -0.35337177 174.55864862 -3.36352539 176.90356445 C-28.42619514 196.30276958 -58.86850447 200.41430258 -89.66796875 196.953125 C-111.85468998 193.82132591 -132.16705751 182.22957216 -147.96484375 166.62890625 C-148.71894531 165.93539062 -149.47304688 165.241875 -150.25 164.52734375 C-170.79304904 145.1471088 -180.62863585 117.02922449 -182.14453125 89.34765625 C-182.75655318 61.87467166 -174.04643738 33.8651186 -154.96484375 13.62890625 C-154.50271484 13.12198242 -154.04058594 12.61505859 -153.56445312 12.09277344 C-137.13615189 -5.853477 -117.42023559 -16.54486349 -93.96484375 -22.37109375 C-92.97355469 -22.61859375 -91.98226562 -22.86609375 -90.9609375 -23.12109375 C-59.69944708 -29.52458539 -24.76382058 -19.58624048 0 0 Z M-81.62890625 -11.3203125 C-101.40080097 -10.44434248 -120.34218798 -1.42251095 -134.96484375 11.62890625 C-135.78082031 12.30308594 -136.59679687 12.97726562 -137.4375 13.671875 C-152.41299955 26.37906087 -161.68210169 42.87220412 -166.96484375 61.62890625 C-167.15175781 62.2643335 -167.33867188 62.89976074 -167.53125 63.55444336 C-169.44042381 70.83743005 -169.35992729 78.20660605 -169.33984375 85.69140625 C-169.3399646 86.38044037 -169.34008545 87.06947449 -169.34020996 87.77938843 C-169.31392509 98.28676658 -168.58970135 107.71089308 -164.96484375 117.62890625 C-164.53171875 118.93601562 -164.53171875 118.93601562 -164.08984375 120.26953125 C-159.60588723 132.68048232 -152.82213832 143.89721697 -143.96484375 153.62890625 C-143.41441406 154.24894531 -142.86398437 154.86898437 -142.296875 155.5078125 C-124.39426848 174.55972215 -99.23387411 184.95337476 -73.390625 185.7890625 C-46.8412421 186.39474204 -22.97773804 178.42194025 -2.96484375 160.62890625 C-2.23007812 159.98824219 -1.4953125 159.34757813 -0.73828125 158.6875 C14.83352046 144.18866696 23.40860056 125.05042357 28.03515625 104.62890625 C28.21022705 103.85732178 28.38529785 103.0857373 28.56567383 102.29077148 C32.80119443 78.2762727 27.21872911 53.75988479 14.28515625 33.37890625 C0.15747876 13.26677737 -18.8004403 -0.66432879 -42.21484375 -8.12109375 C-42.87653564 -8.33209717 -43.53822754 -8.54310059 -44.2199707 -8.76049805 C-56.43058488 -12.48994619 -69.01786905 -11.49509233 -81.62890625 -11.3203125 Z " fill="#1252A9" transform="translate(803.96484375,387.37109375)"/>
<path d="M0 0 C1.22912109 -0.01160156 2.45824219 -0.02320313 3.72460938 -0.03515625 C12.08092996 -0.00869824 19.63728888 1.15069956 27.6875 3.375 C27.20918603 5.62518142 26.72981736 7.87513867 26.25 10.125 C25.98316406 11.37796875 25.71632813 12.6309375 25.44140625 13.921875 C24.8958765 16.42057085 24.33111188 18.90053101 23.6875 21.375 C16.13062169 20.46296296 16.13062169 20.46296296 13.0703125 19.85546875 C8.43472457 19.19706538 3.86414619 19.15109008 -0.8125 19.125 C-1.73675781 19.104375 -2.66101563 19.08375 -3.61328125 19.0625 C-8.92415517 19.03210873 -12.76875949 19.29790991 -17.3125 22.375 C-19.61510759 25.19098187 -19.61510759 25.19098187 -19.1875 28.375 C-18.15222385 31.92451823 -17.37822499 32.46040785 -14.3125 34.375 C-11.85385335 35.32601237 -11.85385335 35.32601237 -9.171875 36.0234375 C-7.68880859 36.44882812 -7.68880859 36.44882812 -6.17578125 36.8828125 C-4.11677735 37.4563368 -2.05689081 38.02670266 0.00390625 38.59375 C8.00076478 40.8963474 16.17246125 43.86144423 20.85546875 51.20703125 C23.27645025 57.51522249 22.32481266 65.92182947 19.921875 72.14453125 C15.06917652 80.91317312 8.32901271 86.28766744 -1.046875 89.234375 C-8.74951469 91.44107718 -16.00232004 92.56992435 -24 92.5625 C-24.81782959 92.56241943 -25.63565918 92.56233887 -26.47827148 92.56225586 C-49.35233396 92.35508302 -49.35233396 92.35508302 -55.3125 89.375 C-55.76760807 82.70008169 -54.0797426 76.78125443 -52.3125 70.375 C-51.13816406 70.66375 -49.96382813 70.9525 -48.75390625 71.25 C-35.33072001 74.40608437 -21.24880951 77.32517152 -8.09765625 71.640625 C-5.92744749 70.10200873 -5.21662658 68.8601647 -4.3125 66.375 C-4.14801119 63.27851124 -4.14801119 63.27851124 -5.3125 60.375 C-9.66878533 57.72822664 -14.13654287 56.57206461 -19.0625 55.5 C-28.89667732 53.17049685 -37.59676061 50.27552406 -43.3125 41.375 C-45.46979433 34.903117 -45.68406107 25.26252437 -42.8125 18.9375 C-36.72136669 9.0930275 -28.08830647 4.18677417 -17.28710938 1.01000977 C-11.56815243 -0.21085424 -5.82350907 -0.05445359 0 0 Z " fill="#1353AA" transform="translate(367.3125,429.625)"/>
<path d="M0 0 C2.62420847 2.46380453 4.77058148 4.67215838 5.23608398 8.37524414 C5.2663129 16.97426597 3.79315888 25.06976542 2 33.4375 C-0.02076805 42.96131577 -1.5184777 52.25580311 -2.0625 62 C-9.3225 62 -16.5825 62 -24.0625 62 C-24.3925 60.68 -24.7225 59.36 -25.0625 58 C-25.95001953 58.39832031 -25.95001953 58.39832031 -26.85546875 58.8046875 C-27.64566406 59.15789062 -28.43585937 59.51109375 -29.25 59.875 C-30.02730469 60.22304688 -30.80460938 60.57109375 -31.60546875 60.9296875 C-32.41628906 61.28289062 -33.22710938 61.63609375 -34.0625 62 C-35.19365234 62.55107422 -35.19365234 62.55107422 -36.34765625 63.11328125 C-39.99959193 64.30607175 -43.5111284 64.34174132 -47.3125 64.3125 C-48.44703613 64.30404053 -48.44703613 64.30404053 -49.60449219 64.29541016 C-55.81941062 64.16041945 -61.86638011 63.9090897 -66.671875 59.53515625 C-71.44688866 54.04925573 -71.53356314 49.71326209 -71.4609375 42.625 C-70.86124753 37.16899711 -68.98228943 33.79047678 -65.0625 30 C-54.99520879 22.38721027 -43.63760153 21.56749281 -31.4375 21.8125 C-30.14714844 21.82603516 -28.85679687 21.83957031 -27.52734375 21.85351562 C-24.37194972 21.88857556 -21.21745422 21.93771856 -18.0625 22 C-18.5575 17.545 -18.5575 17.545 -19.0625 13 C-29.43079403 7.92986398 -40.78915075 9.07954827 -51.609375 12.34375 C-54.0625 13 -54.0625 13 -58.0625 13 C-57.4025 8.05 -56.7425 3.1 -56.0625 -2 C-41.12332268 -7.97567093 -13.24747344 -10.78033264 0 0 Z " fill="#FCBB15" transform="translate(1023.0625,464)"/>
<path d="M0 0 C28.71 0 57.42 0 87 0 C85.68 6.27 84.36 12.54 83 19 C72.44 19 61.88 19 51 19 C50.67 22.63 50.34 26.26 50 30 C49.63224116 31.96617098 49.21544719 33.92466525 48.72265625 35.86328125 C47.32747325 41.59395096 46.04172776 47.33826725 44.80859375 53.10546875 C44.51995956 54.4519902 44.51995956 54.4519902 44.22549438 55.82571411 C43.82930665 57.67562041 43.43359073 59.52562782 43.03833008 61.37573242 C42.43636186 64.19282626 41.83255537 67.00952157 41.22851562 69.82617188 C40.8384333 71.64841431 40.44845573 73.47067916 40.05859375 75.29296875 C39.88146347 76.11927292 39.70433319 76.94557709 39.52183533 77.79692078 C38.29965724 83.52321403 37.14854666 89.25726672 36 95 C27.75 95 19.5 95 11 95 C13.14722125 80.53450945 15.90433106 66.29013091 19 52 C19.22510254 50.96069336 19.45020508 49.92138672 19.68212891 48.85058594 C20.55110442 44.84520059 21.42047017 40.83993254 22.30029297 36.83691406 C22.59057373 35.51385254 22.59057373 35.51385254 22.88671875 34.1640625 C23.05389404 33.40561035 23.22106934 32.6471582 23.39331055 31.86572266 C24.29958632 27.58489164 25.1418524 23.290738 26 19 C16.43 19 6.86 19 -3 19 C-2 8 -2 8 0 0 Z " fill="#FCBB15" transform="translate(890,432)"/>
<path d="M0 0 C1.49080078 -0.0309375 1.49080078 -0.0309375 3.01171875 -0.0625 C10.56396777 -0.1024062 16.47546554 0.61997004 22.375 5.75 C27.48587896 11.76279878 26.954176 16.60915665 26.5 24.25 C26.11436803 26.59262412 25.60504604 28.8375515 25.00390625 31.1328125 C24.46732499 33.38728572 24.21355466 35.56860972 24 37.875 C23.7333687 40.64606106 23.32944869 42.80429176 22.5 45.5 C21.02127258 51.04522784 20.85409283 56.52549925 20.5 62.25 C14.23 62.25 7.96 62.25 1.5 62.25 C1.5 60.6 1.5 58.95 1.5 57.25 C0.68660156 57.7553125 -0.12679687 58.260625 -0.96484375 58.78125 C-10.60728532 64.24783105 -18.48528397 65.68326735 -29.5 64.25 C-33.64652769 63.07789913 -36.45270146 61.36486619 -39.4375 58.1875 C-42.34505142 52.88549446 -42.05370769 47.13021965 -41.5 41.25 C-38.85649894 35.65797854 -34.74884687 31.4327373 -28.9140625 29.30859375 C-20.44229274 26.90632479 -12.33112816 26.10081394 -3.5625 26.1875 C-2.68787109 26.19201172 -1.81324219 26.19652344 -0.91210938 26.20117188 C1.22529047 26.21285166 3.36265463 26.23078311 5.5 26.25 C6.08747013 20.89105492 6.08747013 20.89105492 3.98828125 16.2734375 C0.55012377 14.85931307 -2.65570821 14.80605813 -6.3125 14.875 C-7.42516235 14.88370117 -7.42516235 14.88370117 -8.56030273 14.89257812 C-16.13475687 15.06631521 -23.13108486 16.53297123 -30.5 18.25 C-29.84 13.63 -29.18 9.01 -28.5 4.25 C-18.89335558 0.79761216 -10.15168183 0.05266761 0 0 Z " fill="#1352A8" transform="translate(498.5,456.75)"/>
<path d="M0 0 C8.58 0 17.16 0 26 0 C28.97 5.94 31.94 11.88 35 18 C39.31874813 14.29821589 43.38771572 10.74955285 47.375 6.75 C48.22835938 5.89921875 49.08171875 5.0484375 49.9609375 4.171875 C52.03303855 2.17239298 52.03303855 2.17239298 53 0 C61.58 0 70.16 0 79 0 C79 0.66 79 1.32 79 2 C77.68945312 3.28930664 77.68945312 3.28930664 75.78125 4.84765625 C69.68279758 10.03322305 64.1338413 15.75927797 58.5 21.4375 C57.38044368 22.5620833 56.26065371 23.68643405 55.140625 24.81054688 C52.42438466 27.53769344 49.71131708 30.26795907 47 33 C48.48768389 37.07153107 50.45579523 40.61712038 52.6953125 44.32421875 C53.41798712 45.52928586 54.14064282 46.73436431 54.86328125 47.93945312 C55.99894066 49.82308812 57.13607576 51.70582231 58.27392578 53.58813477 C59.37634283 55.41467921 60.47351567 57.24429585 61.5703125 59.07421875 C62.22789551 60.16307373 62.88547852 61.25192871 63.56298828 62.3737793 C65 65 65 65 65 67 C56.42 67 47.84 67 39 67 C35.7 61.06 32.4 55.12 29 49 C24.58535084 52.78398499 20.92338885 55.98415144 17.1875 60.25 C11.26577848 66.97691257 11.26577848 66.97691257 8.38623047 67.22705078 C7.30744629 67.21657715 6.22866211 67.20610352 5.1171875 67.1953125 C3.95058594 67.18886719 2.78398438 67.18242188 1.58203125 67.17578125 C0.35871094 67.15902344 -0.86460938 67.14226562 -2.125 67.125 C-3.35605469 67.11597656 -4.58710937 67.10695313 -5.85546875 67.09765625 C-8.90383815 67.07402548 -11.95182382 67.04108054 -15 67 C-11.10023279 62.33125463 -7.04785356 57.90872191 -2.7265625 53.62890625 C-2.15795502 53.06171371 -1.58934753 52.49452118 -1.00350952 51.91014099 C0.78696236 50.12520087 2.58090484 48.34379744 4.375 46.5625 C5.60049323 45.34203061 6.82575572 44.12132947 8.05078125 42.90039062 C11.03119774 39.93091244 14.01472894 36.96459743 17 34 C15.66428124 29.54204905 13.88961102 25.79870067 11.5234375 21.796875 C11.19332672 21.23301086 10.86321594 20.66914673 10.52310181 20.0881958 C9.47901215 18.30563084 8.42776831 16.52745117 7.375 14.75 C6.31556923 12.95800458 5.25786798 11.16509589 4.20547485 9.36895752 C3.25646531 7.74956384 2.30099974 6.13395873 1.34521484 4.51855469 C0 2 0 2 0 0 Z " fill="#FCBA14" transform="translate(1041,459)"/>
<path d="M0 0 C0.79164551 0.00644531 1.58329102 0.01289063 2.39892578 0.01953125 C7.45409256 0.17858431 11.5333573 0.59674703 15.5859375 3.890625 C20.74559727 9.76294495 21.38576595 14.89929134 21 22.5 C20.56533129 25.81551487 19.92380395 29.07327386 19.25 32.34765625 C18.98364746 33.69361122 18.98364746 33.69361122 18.71191406 35.0667572 C18.14927969 37.90033876 17.57485737 40.73137569 17 43.5625 C16.61379796 45.49658813 16.2283738 47.43083177 15.84375 49.36523438 C14.90624573 54.079022 13.95279838 58.78917765 13 63.5 C6.07 63.5 -0.86 63.5 -8 63.5 C-7.52893085 57.14056644 -6.79338715 51.61861499 -5 45.5 C-4.43460222 42.16906957 -3.94043508 38.83314256 -3.46484375 35.48828125 C-3 32.5 -3 32.5 -2.453125 30.359375 C-1.63987407 27.02224188 -1.83671365 23.92901336 -2 20.5 C-3.72226496 17.25150023 -3.72226496 17.25150023 -7 16.5 C-9.01360911 16.2289278 -9.01360911 16.2289278 -11.1875 16.1875 C-11.90292969 16.15011719 -12.61835937 16.11273438 -13.35546875 16.07421875 C-17.4928118 16.74034931 -20.82531687 17.65607617 -24 20.5 C-25.67105893 24.27515612 -26.21798576 28.12078238 -26.8125 32.1875 C-27.00424805 33.30060547 -27.19599609 34.41371094 -27.39355469 35.56054688 C-27.95904131 38.86954954 -28.48066947 42.18349329 -29 45.5 C-29.44195784 48.09554693 -29.89690436 50.68834069 -30.3581543 53.28051758 C-30.61418283 54.73070786 -30.86210139 56.18235969 -31.10083008 57.63549805 C-31.89353479 62.39353479 -31.89353479 62.39353479 -33 63.5 C-34.56172745 63.58685603 -36.12729344 63.60702219 -37.69140625 63.59765625 C-38.63564453 63.59443359 -39.57988281 63.59121094 -40.55273438 63.58789062 C-41.54595703 63.57951172 -42.53917969 63.57113281 -43.5625 63.5625 C-44.55958984 63.55798828 -45.55667969 63.55347656 -46.58398438 63.54882812 C-49.05604849 63.53700007 -51.52799518 63.52051849 -54 63.5 C-52.00668211 49.93901375 -49.8777163 36.41474423 -47.375 22.9375 C-47.06622925 21.27303833 -47.06622925 21.27303833 -46.7512207 19.57495117 C-45.61100091 13.51456057 -44.33923044 7.52653699 -43 1.5 C-36.4 1.5 -29.8 1.5 -23 1.5 C-22.67 3.48 -22.34 5.46 -22 7.5 C-21.34 6.901875 -20.68 6.30375 -20 5.6875 C-13.7295599 1.11530409 -7.57688568 -0.06430627 0 0 Z " fill="#1452A8" transform="translate(582,456.5)"/>
<path d="M0 0 C0.91765137 -0.00315216 1.83530273 -0.00630432 2.78076172 -0.009552 C4.27760498 -0.00651566 4.27760498 -0.00651566 5.8046875 -0.00341797 C6.82191895 -0.00437469 7.83915039 -0.00533142 8.88720703 -0.00631714 C11.04264386 -0.00699908 13.19808272 -0.00514382 15.35351562 -0.00097656 C18.66541121 0.00437148 21.97717117 -0.0009211 25.2890625 -0.00732422 C27.37760447 -0.00666344 29.46614635 -0.00538228 31.5546875 -0.00341797 C32.55258301 -0.0054422 33.55047852 -0.00746643 34.57861328 -0.009552 C35.49626465 -0.00639984 36.41391602 -0.00324768 37.359375 0 C38.17132324 0.00079559 38.98327148 0.00159119 39.81982422 0.00241089 C41.6796875 0.12939453 41.6796875 0.12939453 42.6796875 1.12939453 C42.6796875 5.41939453 42.6796875 9.70939453 42.6796875 14.12939453 C58.5196875 14.12939453 74.3596875 14.12939453 90.6796875 14.12939453 C90.6796875 16.76939453 90.6796875 19.40939453 90.6796875 22.12939453 C89.5659375 22.48001953 88.4521875 22.83064453 87.3046875 23.19189453 C85.34360944 23.93980346 85.34360944 23.93980346 83.6796875 25.12939453 C82.28930005 28.61965695 82.28930005 28.61965695 81.6796875 32.12939453 C79.10980069 34.69928134 78.09058697 34.38646228 74.5234375 34.39501953 C72.99009766 34.39888672 72.99009766 34.39888672 71.42578125 34.40283203 C70.35457031 34.39509766 69.28335938 34.38736328 68.1796875 34.37939453 C66.57287109 34.39099609 66.57287109 34.39099609 64.93359375 34.40283203 C63.91136719 34.40025391 62.88914062 34.39767578 61.8359375 34.39501953 C60.89556641 34.39276367 59.95519531 34.39050781 58.98632812 34.38818359 C56.6796875 34.12939453 56.6796875 34.12939453 54.6796875 32.12939453 C54.6796875 29.48939453 54.6796875 26.84939453 54.6796875 24.12939453 C30.9196875 24.12939453 7.1596875 24.12939453 -17.3203125 24.12939453 C-17.3203125 26.10939453 -17.3203125 28.08939453 -17.3203125 30.12939453 C-18.49414062 32.47119141 -18.49414062 32.47119141 -20.3203125 34.12939453 C-22.72460938 34.64697266 -22.72460938 34.64697266 -25.5390625 34.66064453 C-26.55355469 34.66580078 -27.56804688 34.67095703 -28.61328125 34.67626953 C-29.67160156 34.66080078 -30.72992187 34.64533203 -31.8203125 34.62939453 C-33.40779297 34.65259766 -33.40779297 34.65259766 -35.02734375 34.67626953 C-36.54908203 34.66853516 -36.54908203 34.66853516 -38.1015625 34.66064453 C-39.03033203 34.65613281 -39.95910156 34.65162109 -40.91601562 34.64697266 C-43.3203125 34.12939453 -43.3203125 34.12939453 -45.13476562 32.26806641 C-46.55392005 29.70797728 -46.56063107 28.01321738 -46.3203125 25.12939453 C-47.1040625 25.00564453 -47.8878125 24.88189453 -48.6953125 24.75439453 C-51.3203125 24.12939453 -51.3203125 24.12939453 -53.3203125 22.12939453 C-53.3203125 19.48939453 -53.3203125 16.84939453 -53.3203125 14.12939453 C-37.4803125 14.12939453 -21.6403125 14.12939453 -5.3203125 14.12939453 C-5.3203125 9.83939453 -5.3203125 5.54939453 -5.3203125 1.12939453 C-3.74730922 -0.44360875 -2.18347205 0.00213949 0 0 Z " fill="#0C2E69" transform="translate(717.3203125,497.87060546875)"/>
<path d="M0 0 C23.76 0 47.52 0 72 0 C72.495 3.96 72.495 3.96 73 8 C75.47969505 10.47969505 82.04387197 9.23402337 85.375 9.25 C86.97601562 9.2809375 86.97601562 9.2809375 88.609375 9.3125 C90.14464844 9.32023438 90.14464844 9.32023438 91.7109375 9.328125 C92.65243652 9.3374707 93.59393555 9.34681641 94.56396484 9.35644531 C97.39455548 8.94226789 98.25553368 8.20698662 100 6 C100.37125 6.4125 100.7425 6.825 101.125 7.25 C103.54441441 9.50812012 106.22302218 11.21039207 109 13 C108.67 13.99 108.34 14.98 108 16 C84.9288585 20.76020801 61.62657439 21.33888457 38.14355469 21.26074219 C34.69192263 21.24934865 31.24059919 21.25613621 27.78897762 21.26762199 C-16.89972692 21.39363321 -16.89972692 21.39363321 -37 16 C-35.3015431 12.24137778 -33.30684619 10.48013464 -30 8 C-29.34 7.34 -28.68 6.68 -28 6 C-27.01 7.485 -27.01 7.485 -26 9 C-23.6148508 9.46559958 -23.6148508 9.46559958 -20.84375 9.3984375 C-19.31041016 9.40423828 -19.31041016 9.40423828 -17.74609375 9.41015625 C-16.67488281 9.39855469 -15.60367188 9.38695312 -14.5 9.375 C-13.42878906 9.38660156 -12.35757813 9.39820313 -11.25390625 9.41015625 C-10.23167969 9.40628906 -9.20945312 9.40242187 -8.15625 9.3984375 C-6.74569336 9.39336182 -6.74569336 9.39336182 -5.30664062 9.38818359 C-4.54544922 9.26008301 -3.78425781 9.13198242 -3 9 C-0.5364399 5.74922159 -0.5364399 5.74922159 0 0 Z " fill="#E9EDF2" transform="translate(700,522)"/>
<path d="M0 0 C1.09763672 -0.00773437 2.19527344 -0.01546875 3.32617188 -0.0234375 C4.39544922 -0.02085937 5.46472656 -0.01828125 6.56640625 -0.015625 C8.00608765 -0.01224121 8.00608765 -0.01224121 9.47485352 -0.00878906 C12.4375 0.25 12.4375 0.25 19.4375 2.25 C18.4475 7.2 17.4575 12.15 16.4375 17.25 C15.426875 16.92 14.41625 16.59 13.375 16.25 C5.72925146 14.36922763 -3.84680773 13.56082453 -11.1875 16.8125 C-16.20934435 19.91294304 -18.77650981 24.22888236 -20.875 29.625 C-22.39020741 37.01551705 -22.39020741 37.01551705 -20.58203125 44.12109375 C-18.18736521 47.19363449 -16.34759572 48.67110301 -12.5625 49.25 C-9.90390952 49.37020966 -7.2830737 49.43507696 -4.625 49.4375 C-3.57022461 49.45586914 -3.57022461 49.45586914 -2.49414062 49.47460938 C1.64831317 49.48625639 4.68158533 48.94990414 8.4375 47.25 C9.4275 47.25 10.4175 47.25 11.4375 47.25 C11.1757823 49.52724485 10.85113741 51.79731948 10.5 54.0625 C10.32597656 55.32707031 10.15195312 56.59164062 9.97265625 57.89453125 C8.31443306 61.51899365 8.08275935 61.84190157 4.58984375 63.171875 C-1.24202461 64.68280337 -7.07044954 64.7269686 -13.0625 64.6875 C-14.13886719 64.70748047 -15.21523438 64.72746094 -16.32421875 64.74804688 C-24.32701315 64.74317307 -30.70698605 63.54553112 -36.90234375 58.25 C-37.42957031 57.59 -37.95679688 56.93 -38.5 56.25 C-39.04527344 55.59 -39.59054687 54.93 -40.15234375 54.25 C-45.49468741 46.67304722 -44.25912896 37.15489781 -43.5625 28.25 C-41.87644402 19.01629745 -35.3946433 11.8647718 -28.03515625 6.359375 C-18.90751988 0.56494328 -10.58730292 -0.07486602 0 0 Z " fill="#1251A8" transform="translate(438.5625,456.75)"/>
<path d="M0 0 C1.26488754 -0.01260864 2.52977509 -0.02521729 3.83299255 -0.03820801 C5.21036334 -0.0310474 6.58772903 -0.02284321 7.96508789 -0.01367188 C9.38229132 -0.01636777 10.79949295 -0.02025101 12.21669006 -0.02526855 C15.185004 -0.03116107 18.15283593 -0.02261071 21.12109375 -0.00390625 C24.91883523 0.01886332 28.7154447 0.00577283 32.51314449 -0.01819611 C35.43950362 -0.03267913 38.36559624 -0.02803649 41.29196358 -0.01768494 C42.69174904 -0.01502344 44.09155898 -0.01826713 45.49131584 -0.02760315 C47.45123685 -0.03780556 49.41124307 -0.0194876 51.37109375 0 C52.484879 0.00318237 53.59866425 0.00636475 54.74620056 0.00964355 C59.0263022 0.73333864 61.55904819 2.8454812 64.05224609 6.34521484 C64.51570435 7.26197998 64.51570435 7.26197998 64.98852539 8.19726562 C65.33334961 8.87917969 65.67817383 9.56109375 66.03344727 10.26367188 C66.37311523 10.96621094 66.7127832 11.66875 67.06274414 12.39257812 C67.42174805 13.08738281 67.78075195 13.7821875 68.15063477 14.49804688 C68.48901367 15.18253906 68.82739258 15.86703125 69.17602539 16.57226562 C69.47935791 17.18569824 69.78269043 17.79913086 70.09521484 18.43115234 C70.75024414 20.51757812 70.75024414 20.51757812 70.75024414 26.51757812 C41.05024414 26.51757812 11.35024414 26.51757812 -19.24975586 26.51757812 C-18.12279703 19.75582514 -18.12279703 19.75582514 -16.54272461 16.57226562 C-16.20305664 15.88777344 -15.86338867 15.20328125 -15.51342773 14.49804688 C-15.15829102 13.80324219 -14.8031543 13.1084375 -14.43725586 12.39257812 C-14.0937207 11.69003906 -13.75018555 10.9875 -13.39624023 10.26367188 C-13.05270508 9.58175781 -12.70916992 8.89984375 -12.35522461 8.19726562 C-12.04738037 7.58608887 -11.73953613 6.97491211 -11.42236328 6.34521484 C-8.25095177 1.40222367 -5.89321837 0.01685049 0 0 Z " fill="#04306D" transform="translate(709.249755859375,424.482421875)"/>
<path d="M0 0 C8.25 0 16.5 0 25 0 C20.60639475 22.39321384 15.81355563 44.69404614 11 67 C3.41 67 -4.18 67 -12 67 C-12 59.11744128 -12 59.11744128 -11.16015625 54.9765625 C-10.98419922 54.10128906 -10.80824219 53.22601562 -10.62695312 52.32421875 C-10.44068359 51.43347656 -10.25441406 50.54273438 -10.0625 49.625 C-9.88009766 48.71105469 -9.69769531 47.79710937 -9.50976562 46.85546875 C-8.13715278 40.13715278 -8.13715278 40.13715278 -7 39 C-6.5017376 36.4186406 -6.0493074 33.84366936 -5.625 31.25 C-4.53774628 24.8050091 -3.25084417 18.46570596 -1.6484375 12.125 C-0.81972917 8.13122493 -0.45043335 4.05390017 0 0 Z " fill="#FCBC17" transform="translate(1127,459)"/>
<path d="M0 0 C19.47 0 38.94 0 59 0 C53.98529412 10.02941176 53.98529412 10.02941176 49.1875 12.375 C42.01278271 13.78180731 35.2846399 14.08528487 28 14 C27.15695312 13.99081543 26.31390625 13.98163086 25.4453125 13.97216797 C10.17208223 13.61938955 10.17208223 13.61938955 4.9296875 9.7109375 C0 3.5797491 0 3.5797491 0 0 Z " fill="#083067" transform="translate(706,475)"/>
<path d="M0 0 C3.08073848 1.3831887 4.6384567 2.6384567 7 5 C7.71428447 9.69268284 7.68776861 13.75672598 5.375 17.9375 C-0.18619693 22.76696049 -4.9610716 23.6324685 -12.20703125 23.3984375 C-15 23 -15 23 -18.25 21.125 C-20.73296078 16.69114146 -21.00120522 12.96629573 -20 8 C-15.69075211 -0.29615046 -8.43803423 -0.83879569 0 0 Z " fill="#FDBC16" transform="translate(1150,427)"/>
<path d="M0 0 C13.86 0 27.72 0 42 0 C42 3.96 42 7.92 42 12 C28.14 12 14.28 12 0 12 C0 8.04 0 4.08 0 0 Z " fill="#F9FAFB" transform="translate(715,500)"/>
<path d="M0 0 C2.96839823 0.60042785 5.01031796 1.48397622 7.4765625 3.23046875 C8.13785156 3.69638428 8.79914062 4.1622998 9.48046875 4.64233398 C10.18816406 5.15223877 10.89585937 5.66214355 11.625 6.1875 C12.37136719 6.71996338 13.11773438 7.25242676 13.88671875 7.80102539 C20.88784408 12.83783248 27.69055059 18.11820855 34.46875 23.44921875 C39.83067682 27.66566426 45.25913912 31.7937648 50.6953125 35.91381836 C51.36304688 36.42178955 52.03078125 36.92976074 52.71875 37.453125 C53.30591797 37.89817383 53.89308594 38.34322266 54.49804688 38.80175781 C56 40 56 40 58 42 C58.125 44.625 58.125 44.625 58 47 C53.17094678 46.5430766 50.28945528 44.18792978 46.6875 41.1875 C45.43491278 40.17414864 44.18095544 39.16248902 42.92578125 38.15234375 C42.27818848 37.62882324 41.6305957 37.10530273 40.96337891 36.56591797 C37.81886163 34.05796798 34.60018917 31.65277202 31.375 29.25 C30.72716553 28.7655542 30.07933105 28.2811084 29.41186523 27.78198242 C26.41302564 25.54088114 23.41041232 23.30491303 20.40527344 21.07226562 C17.68491631 19.05076054 14.96744431 17.02541822 12.25 15 C11.39196777 14.36481445 10.53393555 13.72962891 9.64990234 13.07519531 C8.84246582 12.47288086 8.0350293 11.87056641 7.203125 11.25 C6.48801758 10.71890625 5.77291016 10.1878125 5.03613281 9.640625 C2.84757384 7.8771818 0.86809913 6.10227378 -1 4 C-0.75 1.75 -0.75 1.75 0 0 Z " fill="#A7C3E2" transform="translate(842,558)"/>
<path d="M0 0 C2.1875 1.0625 2.1875 1.0625 4.1875 3.0625 C3.96613948 7.51184653 2.24949733 9.42027536 -0.9375 12.375 C-4.4832079 15.76411512 -7.78273638 19.21886677 -10.9765625 22.9375 C-19.16385135 32.41385135 -19.16385135 32.41385135 -22.8125 36.0625 C-25.75 36.25 -25.75 36.25 -28.8125 36.0625 C-30.8125 34.0625 -30.8125 34.0625 -31.25 31.75 C-30.63790053 27.98996041 -28.52951392 26.489531 -25.8125 24.0625 C-21.45390088 19.81795768 -17.1615835 15.54707884 -13.1875 10.9375 C-12.06378884 9.64471193 -10.93879067 8.3530414 -9.8125 7.0625 C-9.214375 6.37285156 -8.61625 5.68320312 -8 4.97265625 C-3.50258019 0.07783512 -3.50258019 0.07783512 0 0 Z " fill="#1957AB" transform="translate(851.8125,346.9375)"/>
<path d="M0 0 C23.43 0 46.86 0 71 0 C71 1.98 71 3.96 71 6 C47.57 6 24.14 6 0 6 C0 4.02 0 2.04 0 0 Z " fill="#FCFCFD" transform="translate(700,523)"/>
<path d="M0 0 C0.62054002 9.9975892 0.62054002 9.9975892 -1.625 13.625 C-6.81772895 16.63131676 -12.9760632 16.1548539 -18.8125 16.125 C-19.58787109 16.12886719 -20.36324219 16.13273437 -21.16210938 16.13671875 C-26.87327454 16.12672546 -26.87327454 16.12672546 -28 15 C-28.69914616 7.89201406 -28.69914616 7.89201406 -26.1875 4.6875 C-17.74434832 0.21759617 -9.42007053 -0.44387767 0 0 Z " fill="#FDFAF2" transform="translate(799,471)"/>
<path d="M0 0 C8.77983353 0.06588993 18.99161318 1.14787861 26.25 6.3125 C28.34280299 9.52644744 28.58571408 11.23469519 28 15 C26 17 26 17 24.07421875 17.265625 C5.89240546 17.14659513 5.89240546 17.14659513 0.63671875 13.24609375 C-1.34405372 10.52784991 -1.45492872 9.13747385 -1.3125 5.8125 C-1.28800781 4.93207031 -1.26351562 4.05164063 -1.23828125 3.14453125 C-1 1 -1 1 0 0 Z " fill="#FDFBF5" transform="translate(672,471)"/>
<path d="M0 0 C0.84433594 0.00322266 1.68867187 0.00644531 2.55859375 0.00976562 C3.86763672 0.02233398 3.86763672 0.02233398 5.203125 0.03515625 C6.09128906 0.03966797 6.97945312 0.04417969 7.89453125 0.04882812 C10.08079829 0.06058225 12.26692679 0.07701376 14.453125 0.09765625 C14.62363601 3.61018296 14.46984321 6.71719722 13.453125 10.09765625 C10.05621511 13.8400146 6.00246237 14.89698361 1.10546875 15.53125 C-7.58206814 15.85446163 -7.58206814 15.85446163 -10.90234375 13.25 C-12.546875 11.09765625 -12.546875 11.09765625 -13.046875 8.09765625 C-12.43489778 4.42579291 -11.496377 3.30978275 -8.546875 1.09765625 C-5.65023072 0.16245613 -3.03232145 -0.02048866 0 0 Z " fill="#FDFBF5" transform="translate(986.546875,498.90234375)"/>
<path d="M0 0 C3 0.25 3 0.25 5 2.25 C5.00512695 4.24829102 5.00512695 4.24829102 4.67578125 6.69140625 C4.22431296 10.36727033 3.85096651 14.01914303 3.60546875 17.71484375 C3.53650391 18.61654297 3.46753906 19.51824219 3.39648438 20.44726562 C3.25515203 22.30043643 3.12792676 24.15472852 3.01367188 26.00976562 C2.94083984 26.90244141 2.86800781 27.79511719 2.79296875 28.71484375 C2.70825317 29.91548462 2.70825317 29.91548462 2.62182617 31.14038086 C1.7841742 33.98221465 0.53668272 34.80727449 -2 36.25 C-4.6875 36.0625 -4.6875 36.0625 -7 35.25 C-10.19204417 28.86591167 -7.62596648 19.0353978 -6.625 12.25 C-6.49867188 11.31027344 -6.37234375 10.37054688 -6.2421875 9.40234375 C-6.11328125 8.50644531 -5.984375 7.61054688 -5.8515625 6.6875 C-5.73635254 5.88183594 -5.62114258 5.07617188 -5.50244141 4.24609375 C-4.63475258 0.79894902 -3.46200258 0.28850021 0 0 Z " fill="#1757AA" transform="translate(806,331.75)"/>
<path d="M0 0 C2 2 2 2 2 4.9375 C1 8 1 8 -1.4375 9.6875 C-5.06405869 11.02360057 -8.69361395 12.18200081 -12.41015625 13.23828125 C-14.89543969 13.96924697 -17.31259587 14.81200745 -19.75 15.6875 C-23.27640442 16.87337051 -26.24755948 17.4576147 -30 17 C-32 15 -32 15 -32.4375 12.5625 C-32 10 -32 10 -29.9765625 8.5 C-26.38542423 6.69029252 -22.78932522 5.55668295 -18.9375 4.4375 C-13.72097092 2.95345978 -13.72097092 2.95345978 -8.73046875 0.86328125 C-5.84933729 -0.57403264 -3.14344476 -0.23284776 0 0 Z " fill="#1655A9" transform="translate(873,387)"/>
<path d="M0 0 C0.74507813 0.00451172 1.49015625 0.00902344 2.2578125 0.01367188 C4.0885764 0.02540754 5.91929873 0.0433415 7.75 0.0625 C7.79682099 3.19281761 7.64802702 6.05177358 6.75 9.0625 C2.51984919 13.1077856 -3.09470842 14.22128562 -8.75 14.3125 C-9.7090625 14.33828125 -10.668125 14.3640625 -11.65625 14.390625 C-14.25 14.0625 -14.25 14.0625 -16.0625 12.73046875 C-17.95852692 10.06729936 -17.76711946 8.22985667 -17.25 5.0625 C-12.07768647 -0.2534889 -7.05644514 -0.08103691 0 0 Z " fill="#F6F8FB" transform="translate(494.25,493.9375)"/>
<path d="M0 0 C2.97 0 5.94 0 9 0 C9 1.65 9 3.3 9 5 C9.66 4.67 10.32 4.34 11 4 C11.65213292 1.97536745 11.65213292 1.97536745 12 0 C13.32 0 14.64 0 16 0 C16 1.32 16 2.64 16 4 C16.66 4 17.32 4 18 4 C18 2.68 18 1.36 18 0 C19.65 0 21.3 0 23 0 C23 1.65 23 3.3 23 5 C23.99 5 24.98 5 26 5 C26 3.35 26 1.7 26 0 C28.97 0 31.94 0 35 0 C35 2.97 35 5.94 35 9 C32.60429729 9.1687539 30.20846637 9.33506836 27.8125 9.5 C27.13896484 9.54769531 26.46542969 9.59539062 25.77148438 9.64453125 C22.17363248 9.89023821 18.60627694 10.05601984 15 10 C15 8.35 15 6.7 15 5 C14.01 5.495 14.01 5.495 13 6 C12.67 7.32 12.34 8.64 12 10 C7.545 10.495 7.545 10.495 3 11 C3 10.34 3 9.68 3 9 C2.01 9 1.02 9 0 9 C0 6.03 0 3.06 0 0 Z " fill="#5B5B5A" transform="translate(718,402)"/>
<path d="M0 0 C0.33 0 0.66 0 1 0 C1 3.3 1 6.6 1 10 C-1.64 10 -4.28 10 -7 10 C-7 10.99 -7 11.98 -7 13 C-13.6 13 -20.2 13 -27 13 C-27 12.01 -27 11.02 -27 10 C-25.68 10 -24.36 10 -23 10 C-22.67 8.35 -22.34 6.7 -22 5 C-21.34 5 -20.68 5 -20 5 C-20 6.65 -20 8.3 -20 10 C-18.35 10 -16.7 10 -15 10 C-15 8.35 -15 6.7 -15 5 C-14.67 5 -14.34 5 -14 5 C-14 6.65 -14 8.3 -14 10 C-13.44828125 9.83628906 -12.8965625 9.67257812 -12.328125 9.50390625 C-9.73385993 8.94239586 -7.40164589 8.90260992 -4.75 8.9375 C-3.85796875 8.94652344 -2.9659375 8.95554687 -2.046875 8.96484375 C-1.37140625 8.97644531 -0.6959375 8.98804688 0 9 C0 6.03 0 3.06 0 0 Z " fill="#EBE9E2" transform="translate(753,402)"/>
<path d="M0 0 C2.97 0 5.94 0 9 0 C9 2.97 9 5.94 9 9 C4.71 9 0.42 9 -4 9 C-4 7.68 -4 6.36 -4 5 C-2.68 5 -1.36 5 0 5 C0 3.35 0 1.7 0 0 Z " fill="#434847" transform="translate(744,402)"/>
<path d="M0 0 C5.96313166 -0.02464574 11.92623395 -0.042834 17.8894043 -0.05493164 C19.91968298 -0.05997278 21.94995802 -0.06680557 23.98022461 -0.07543945 C26.89177347 -0.08751467 29.8032745 -0.09323034 32.71484375 -0.09765625 C33.6283812 -0.10281754 34.54191864 -0.10797882 35.48313904 -0.11329651 C37.65575427 -0.11349168 39.82827296 -0.06211805 42 0 C43 1 43 1 43.09765625 3.94140625 C43.08605469 5.13636719 43.07445312 6.33132813 43.0625 7.5625 C43.05347656 8.76003906 43.04445313 9.95757812 43.03515625 11.19140625 C43.02355469 12.11824219 43.01195312 13.04507812 43 14 C42.34 14 41.68 14 41 14 C41 10.04 41 6.08 41 2 C20.705 1.505 20.705 1.505 0 1 C0 0.67 0 0.34 0 0 Z " fill="#1F2D55" transform="translate(717,498)"/>
<path d="M0 0 C0.33 0 0.66 0 1 0 C1.04254356 1.99954746 1.04080783 4.00041636 1 6 C-0.71443219 7.71443219 -3.00445241 7.23052967 -5.34765625 7.31640625 C-6.42724609 7.35830078 -7.50683594 7.40019531 -8.61914062 7.44335938 C-9.75544922 7.48267578 -10.89175781 7.52199219 -12.0625 7.5625 C-13.77276367 7.62727539 -13.77276367 7.62727539 -15.51757812 7.69335938 C-18.34492195 7.79982839 -21.17235738 7.90184207 -24 8 C-23.67 6.68 -23.34 5.36 -23 4 C-22.01 4.33 -21.02 4.66 -20 5 C-17.8783532 5.14554833 -15.75143294 5.22080412 -13.625 5.25 C-12.50351562 5.27578125 -11.38203125 5.3015625 -10.2265625 5.328125 C-5.70957403 4.86877024 -3.16393435 3.16393435 0 0 Z " fill="#DBE2E9" transform="translate(903,618)"/>
<path d="M0 0 C1.65 0 3.3 0 5 0 C4.67 2.97 4.34 5.94 4 9 C4.99 9.33 5.98 9.66 7 10 C3.7 10 0.4 10 -3 10 C-2.67 8.68 -2.34 7.36 -2 6 C-2 6.99 -2 7.98 -2 9 C-1.01 9 -0.02 9 1 9 C1 7.68 1 6.36 1 5 C0.01 4.67 -0.98 4.34 -2 4 C-1.34 4 -0.68 4 0 4 C0 2.68 0 1.36 0 0 Z " fill="#808687" transform="translate(736,402)"/>
<path d="M0 0 C1.32 0 2.64 0 4 0 C4 1.65 4 3.3 4 5 C4.99 5 5.98 5 7 5 C7 6.32 7 7.64 7 9 C6.01 9 5.02 9 4 9 C3.67 8.01 3.34 7.02 3 6 C2.34 6 1.68 6 1 6 C0.67 6.99 0.34 7.98 0 9 C-1.65 9 -3.3 9 -5 9 C-4.34 8.01 -3.68 7.02 -3 6 C-2.34 6 -1.68 6 -1 6 C-0.67 4.02 -0.34 2.04 0 0 Z " fill="#515455" transform="translate(730,402)"/>
<path d="M0 0 C3.96 0 7.92 0 12 0 C12 0.33 12 0.66 12 1 C8.37 1 4.74 1 1 1 C1.020625 2.4025 1.04125 3.805 1.0625 5.25 C1.13822945 10.39960274 -0.0262729 14.26305497 -2 19 C-3.56454159 14.97985339 -2.46223974 11.30074319 -1.5625 7.25 C-1.34110352 6.20392578 -1.34110352 6.20392578 -1.11523438 5.13671875 C-0.75131967 3.4227979 -0.37670932 1.71115419 0 0 Z " fill="#3E72B9" transform="translate(539,458)"/>
<path d="M0 0 C0.66 0 1.32 0 2 0 C2 1.65 2 3.3 2 5 C3.65 5 5.3 5 7 5 C3.09971775 7.60018816 -0.47434569 7.15085514 -5 7 C-5 6.34 -5 5.68 -5 5 C-3.68 5 -2.36 5 -1 5 C-0.67 3.35 -0.34 1.7 0 0 Z " fill="#F2F4F5" transform="translate(731,407)"/>
<path d="M0 0 C7.425 0.99 7.425 0.99 15 2 C15 2.33 15 2.66 15 3 C10.05 3.33 5.1 3.66 0 4 C0 2.68 0 1.36 0 0 Z " fill="#B5C7DC" transform="translate(879,622)"/>
<path d="M0 0 C0.66 0.33 1.32 0.66 2 1 C1.04956626 2.33897583 0.08940853 3.67105427 -0.875 5 C-1.40867187 5.7425 -1.94234375 6.485 -2.4921875 7.25 C-3.23855469 8.11625 -3.23855469 8.11625 -4 9 C-4.66 9 -5.32 9 -6 9 C-4.68775452 5.06326356 -3.08089673 2.77280706 0 0 Z " fill="#2661AF" transform="translate(464,489)"/>
</svg>
